<svg id="icons" enable-background="new 0 0 64 64" height="512" viewBox="0 0 64 64" width="512" xmlns="http://www.w3.org/2000/svg"><g><g><path d="m62.995 9.005h-61.98v48.99h62v-48.99z" fill="#e6e9ed"/></g><g><path d="m5.015 13.025h54v25.989h-54z" fill="#656d78"/></g><g><circle cx="12.485" cy="45.515" fill="#ed5565" r="3"/></g><g><path d="m62.985 7.005v2h-61.98-.02v-2c0-1.1.899-2 2-2h58c1.11 0 2 .9 2 2z" fill="#ccd1d9"/></g><g><circle cx="31.995" cy="45.515" fill="#ed5565" r="3"/></g><g><circle cx="51.505" cy="45.515" fill="#ed5565" r="3"/></g><g><path d="m14.985 24.515h10v3h-10z" fill="#e6e9ed"/></g><g><path d="m4.021 8.003c-.553 0-1.005-.448-1.005-1s.442-1 .994-1h.011c.552 0 1 .448 1 1s-.448 1-1 1z" fill="#e6e9ed"/></g><g><path d="m7.021 8.003c-.553 0-1.005-.448-1.005-1s.442-1 .994-1h.011c.552 0 1 .448 1 1s-.448 1-1 1z" fill="#e6e9ed"/></g><g><path d="m10.021 8.003c-.553 0-1.005-.448-1.005-1s.442-1 .994-1h.011c.552 0 1 .448 1 1s-.448 1-1 1z" fill="#e6e9ed"/></g><g><path d="m59.015 40.013h-53.999c-.553 0-1-.447-1-1v-25.994c0-.552.447-1 1-1h53.999c.553 0 1 .448 1 1v25.994c0 .552-.448 1-1 1zm-52.999-2h51.999v-23.994h-51.999z" fill="#656d78"/></g><g><path d="m54.017 22.013h-18.012c-.553 0-1-.448-1-1s.447-1 1-1h18.012c.553 0 1 .448 1 1s-.448 1-1 1z" fill="#545c66"/></g><g><path d="m54.017 25.013h-18.012c-.553 0-1-.448-1-1s.447-1 1-1h18.012c.553 0 1 .448 1 1s-.448 1-1 1z" fill="#545c66"/></g><g><path d="m61.999 58.995h-59.998c-.553 0-1-.448-1-1s.447-1 1-1h59.998c.553 0 1 .448 1 1s-.447 1-1 1z" fill="#e6e9ed"/></g><g><path d="m45.008 28.013h-9.003c-.553 0-1-.448-1-1s.447-1 1-1h9.003c.553 0 1 .448 1 1s-.447 1-1 1z" fill="#545c66"/></g><g><path d="m19.011 52.014h-12.994c-.553 0-1-.447-1-1s.447-1 1-1h12.994c.553 0 1 .447 1 1s-.448 1-1 1z" fill="#ccd1d9"/></g><g><path d="m58.01 52.014h-12.994c-.553 0-1-.447-1-1s.447-1 1-1h12.994c.553 0 1 .447 1 1s-.447 1-1 1z" fill="#ccd1d9"/></g><g><path d="m38.497 52.014h-12.994c-.553 0-1-.447-1-1s.447-1 1-1h12.994c.553 0 1 .447 1 1s-.447 1-1 1z" fill="#ccd1d9"/></g><g><path d="m35.516 55.014h-7.031c-.553 0-1-.447-1-1s.447-1 1-1h7.031c.553 0 1 .447 1 1s-.448 1-1 1z" fill="#ccd1d9"/></g><g><path d="m55.016 55.014h-7.006c-.553 0-1-.447-1-1s.447-1 1-1h7.006c.553 0 1 .447 1 1s-.448 1-1 1z" fill="#ccd1d9"/></g><g><path d="m16.016 55.014h-6.998c-.553 0-1-.447-1-1s.447-1 1-1h6.998c.553 0 1 .447 1 1s-.448 1-1 1z" fill="#ccd1d9"/></g><g><path d="m41.003 33.002h-5.002c-.553 0-1-.447-1-1s.447-1 1-1h5.002c.553 0 1 .447 1 1s-.447 1-1 1z" fill="#545c66"/></g><g><path d="m45.002 32.002h-1c-.553 0-1-.447-1-1s.447-1 1-1h1c.553 0 1 .447 1 1s-.447 1-1 1z" fill="#545c66"/></g><g><path d="m45.003 34.002c-.367 0-.72-.202-.896-.553l-1-2c-.247-.494-.047-1.095.447-1.342.494-.248 1.095-.047 1.342.447l1 2c.247.494.047 1.095-.447 1.342-.143.072-.296.106-.446.106z" fill="#545c66"/></g><g><path d="m45.002 34.002h-1c-.553 0-1-.447-1-1s.447-1 1-1h1c.553 0 1 .447 1 1s-.447 1-1 1z" fill="#545c66"/></g><g><path d="m28.99 27.012h-1c-.553 0-1-.447-1-1 0-.552.447-1 1-1h1c.553 0 1 .448 1 1s-.447 1-1 1z" fill="#e6e9ed"/></g><g><path d="m11.991 27.012h-1c-.553 0-1-.447-1-1 0-.552.447-1 1-1h1c.553 0 1 .448 1 1s-.447 1-1 1z" fill="#e6e9ed"/></g><g><path d="m28.985 26.015v3.99c0 1.11-.891 2-2 2-1.101 0-2-.89-2-2v-2.49-3-2.51c0-1.1.899-2 2-2 1.109 0 2 .9 2 2z" fill="#ed5565"/></g><g><path d="m14.985 22.005v2.51 3 2.49c0 1.11-.891 2-2 2-1.101 0-2-.89-2-2v-3.99-4.01c0-1.1.899-2 2-2 1.11 0 2 .9 2 2z" fill="#ed5565"/></g></g></svg>