<svg id="icons" enable-background="new 0 0 64 64" height="512" viewBox="0 0 64 64" width="512" xmlns="http://www.w3.org/2000/svg"><g><g><path d="m24 45.5v3c0 4.42 3.58 8 8 8s8-3.58 8-8v-3h5c.69 0 1.36.09 2 .25v15.75h-30v-15.74-.01c.64-.16 1.31-.25 2-.25z" fill="#5d9cec"/></g><g><path d="m40 45.5v3c0 4.42-3.58 8-8 8s-8-3.58-8-8v-3h1v-2-3.73c2.09 1.101 4.47 1.73 7 1.73s4.91-.63 7-1.73v3.73 2z" fill="#eac6bb"/></g><g><path d="m47 22.5v4c0 5.76-3.24 10.76-8 13.27-2.09 1.101-4.47 1.73-7 1.73s-4.91-.63-7-1.73c-4.76-2.51-8-7.51-8-13.27v-4z" fill="#eac6bb"/></g><g><path d="m42.996 22.5v4c0 5.76-3.24 10.76-8 13.27-1.528.805-3.214 1.354-4.998 1.594.655.087 1.322.136 2.002.136 2.53 0 4.91-.63 7-1.73 4.76-2.51 8-7.51 8-13.27v-4z" fill="#d3b1a9"/></g><g><path d="m47 14.5v4h-30v-3c0-7.181 5.81-13 13-13h10v5c3.87 0 7 3.13 7 7z" fill="#965353"/></g><g><path d="m40 11.5c1.654 0 3 1.346 3 3v4h4v-4c0-3.87-3.13-7-7-7v-5h-4v5c0 2.209 1.791 4 4 4z" fill="#844747"/></g><g><path d="m48 18.5v4h-1-30-1v-4h1 30z" fill="#e6e9ed"/></g><g><path d="m47 18.5h-3.004v4h3.004 1v-4z" fill="#ccd1d9"/></g><g><path d="m53 53.5v8h-6v-15.75c3.45.89 6 4.02 6 7.75z" fill="#eac6bb"/></g><g><g><path d="m47 45.75c-.64-.16-1.31-.25-2-.25h-4.004c.69 0 1.36.09 2 .25 3.45.89 6 4.02 6 7.75v8h4.004v-8c0-3.73-2.55-6.86-6-7.75z" fill="#d3b1a9"/></g></g><g><path d="m47 48.22v-2.47c-.64-.16-1.31-.25-2-.25h-4.004c.69 0 1.36.09 2 .25 1.576.406 2.961 1.284 4.004 2.47z" fill="#4a89dc"/></g><g><path d="m17 45.76v15.74h-6v-8c0-3.73 2.55-6.86 6-7.75z" fill="#eac6bb"/></g></g><g><g><path d="m24.999 44.5c-.553 0-1-.447-1-1v-3.729c0-.553.447-1 1-1s1 .447 1 1v3.729c0 .553-.447 1-1 1z"/></g><g><path d="m38.999 44.5c-.553 0-1-.447-1-1v-3.729c0-.553.447-1 1-1s1 .447 1 1v3.729c0 .553-.447 1-1 1z"/></g><g><g><path d="m31.999 42.501c-8.822 0-16-7.178-16-16 0-.553.447-1 1-1s1 .447 1 1c0 7.72 6.28 14 14 14s14-6.28 14-14c0-.553.447-1 1-1s1 .447 1 1c0 8.822-7.178 16-16 16z"/></g><g><path d="m16.999 19.5c-.553 0-1-.447-1-1v-3c0-.553.447-1 1-1s1 .447 1 1v3c0 .553-.447 1-1 1z"/></g><g><path d="m46.999 19.5c-.553 0-1-.447-1-1v-3.998c0-.553.447-1 1-1s1 .447 1 1v3.998c0 .553-.447 1-1 1z"/></g><g><path d="m46.999 15.502c-.553 0-1-.447-1-1 0-3.309-2.691-6-6-6-.553 0-1-.447-1-1s.447-1 1-1c4.411 0 8 3.589 8 8 0 .553-.447 1-1 1z"/></g><g><path d="m39.999 8.502c-.553 0-1-.447-1-1v-5.002c0-.553.447-1 1-1s1 .447 1 1v5.002c0 .553-.447 1-1 1z"/></g><g><path d="m39.999 3.5h-10c-.553 0-1-.447-1-1s.447-1 1-1h10c.553 0 1 .447 1 1s-.447 1-1 1z"/></g><g><path d="m16.999 16.5c-.553 0-1-.447-1-1 0-7.72 6.28-14 14-14 .553 0 1 .447 1 1s-.447 1-1 1c-6.617 0-12 5.383-12 12 0 .553-.447 1-1 1z"/></g></g><g><path d="m11 54.5c-.553 0-1-.447-1-1 0-4.963 4.037-9 9-9 .553 0 1 .447 1 1s-.447 1-1 1c-3.859 0-7 3.141-7 7 0 .553-.447 1-1 1z"/></g><g><path d="m53 54.501c-.553 0-1-.447-1-1 0-3.859-3.141-7-7-7-.553 0-1-.447-1-1s.447-1 1-1c4.963 0 9 4.037 9 9 0 .553-.447 1-1 1z"/></g><g><path d="m25 46.501-6-.001c-.553 0-1-.448-1-1 0-.553.448-1 1-1l6 .001c.553 0 1 .448 1 1 0 .553-.448 1-1 1z"/></g><g><path d="m45 46.501-6-.002c-.553 0-1-.448-1-1 0-.553.448-1 1-1l6 .002c.553 0 1 .448 1 1 0 .553-.448 1-1 1z"/></g><g><path d="m11.001 62.498c-.552 0-1-.447-1-1l-.001-7.998c0-.552.447-1 1-1 .552 0 1 .447 1 1l.001 7.998c0 .552-.447 1-1 1z"/></g><g><path d="m53 62.498c-.553 0-1-.447-1-1v-7.997c0-.553.447-1 1-1s1 .447 1 1v7.997c0 .553-.447 1-1 1z"/></g><g><path d="m25 46.501c-.553 0-1-.447-1-1v-5.731c0-.553.447-1 1-1s1 .447 1 1v5.731c0 .553-.447 1-1 1z"/></g><g><path d="m39 46.499c-.553 0-1-.447-1-1v-5.729c0-.553.447-1 1-1s1 .447 1 1v5.729c0 .553-.447 1-1 1z"/></g><g><path d="m31.999 57.497c-4.963 0-9-4.038-9-9.001 0-.553.447-1 1-1s1 .447 1 1c0 3.86 3.141 7.001 7 7.001s7-3.141 7-7.001c0-.553.447-1 1-1s1 .447 1 1c0 4.963-4.037 9.001-9 9.001z"/></g><g><path d="m23.999 49.496c-.553 0-1-.447-1-1v-2.995c0-.553.447-1 1-1s1 .447 1 1v2.995c0 .553-.447 1-1 1z"/></g><g><path d="m39.999 49.496c-.553 0-1-.447-1-1v-2.997c0-.553.447-1 1-1s1 .447 1 1v2.997c0 .553-.447 1-1 1z"/></g><g><path d="m47.002 62.5c-.553 0-1-.447-1-1v-15.747c0-.553.447-1 1-1s1 .447 1 1v15.747c0 .553-.447 1-1 1z"/></g><g><path d="m16.999 62.5c-.553 0-1-.447-1-1v-15.744c0-.553.447-1 1-1s1 .447 1 1v15.744c0 .553-.447 1-1 1z"/></g><g><path d="m47.999 23.5h-32c-.553 0-1-.447-1-1s.447-1 1-1h32c.553 0 1 .447 1 1s-.447 1-1 1z"/></g><g><path d="m47.999 19.5h-32c-.553 0-1-.447-1-1s.447-1 1-1h32c.553 0 1 .447 1 1s-.447 1-1 1z"/></g><g><path d="m47.999 23.5c-.553 0-1-.447-1-1v-4c0-.553.447-1 1-1s1 .447 1 1v4c0 .553-.447 1-1 1z"/></g><g><path d="m15.999 23.5c-.553 0-1-.447-1-1v-4c0-.553.447-1 1-1s1 .447 1 1v4c0 .553-.447 1-1 1z"/></g><g><path d="m16.999 27.501c-.553 0-1-.447-1-1v-4.001c0-.553.447-1 1-1s1 .447 1 1v4.001c0 .553-.447 1-1 1z"/></g><g><path d="m46.999 27.501c-.553 0-1-.447-1-1v-4.001c0-.553.447-1 1-1s1 .447 1 1v4.001c0 .553-.447 1-1 1z"/></g></g></svg>