<svg id="icons" enable-background="new 0 0 64 64" height="512" viewBox="0 0 64 64" width="512" xmlns="http://www.w3.org/2000/svg"><g><g><path d="m15 7v44h17 17v-44z" fill="#e6e9ed"/></g><g><path d="m49 7h-34v-1c0-2.76 2.24-5 5-5h24c2.77 0 5 2.24 5 5z" fill="#656d78"/></g><g><path d="m49 51v2c0 3.3-2.7 6-6 6h-11v-2c1.11 0 2-.89 2-2 0-1.1-.89-2-2-2v-2z" fill="#656d78"/></g><g><path d="m32 53c1.11 0 2 .9 2 2 0 1.11-.89 2-2 2-1.1 0-2-.89-2-2 0-1.1.9-2 2-2z" fill="#aab2bd"/></g><g><path d="m32 59h-11c-3.3 0-6-2.7-6-6v-2h17v2c-1.1 0-2 .9-2 2 0 1.11.9 2 2 2z" fill="#656d78"/></g><g><path d="m49 53v4c0 3.3-2.7 6-6 6h-22c-3.3 0-6-2.7-6-6v-4c0 3.3 2.7 6 6 6h11 11c3.3 0 6-2.7 6-6z" fill="#545c66"/></g><g><g><path d="m29.03 5c-.553 0-1.005-.447-1.005-1s.442-1 .994-1h.011c.552 0 1 .447 1 1s-.448 1-1 1z" fill="#5d9cec"/></g><g><path d="m35 5h-3c-.553 0-1-.447-1-1s.447-1 1-1h3c.553 0 1 .447 1 1s-.447 1-1 1z" fill="#545c66"/></g></g><g><g><path d="m43.999 34.999v4c0 2.2-1.8 4-4 4h-15.998c-2.2 0-4-1.8-4-4v-4c0 2.2 1.8 4 4 4h15.998c2.2 0 4-1.8 4-4z" fill="#545c66"/></g><path d="m39.009 27.5v-3.5c0-1.11-.89-2-2-2-1.1 0-2 .89-2 2v2h-5.998v-2c0-1.11-.89-2-2-2-1.1 0-2 .89-2 2v3.5 3.5c0 1.1.9 2 2 2 1.11 0 2-.9 2-2v-2h5.998v2c0 1.1.9 2 2 2 1.11 0 2-.9 2-2zm4.99-5.5v12.999c0 2.2-1.8 4-4 4h-15.998c-2.2 0-4-1.8-4-4v-12.999-2.999c0-2.2 1.8-4 4-4h15.998c2.2 0 4 1.8 4 4z" fill="#656d78"/><g><path d="m39.009 28.497h-1c-.553 0-1-.447-1-1s.447-1 1-1h1c.553 0 1 .447 1 1s-.447 1-1 1z" fill="#e6e9ed"/></g><g><path d="m26.014 28.497h-1c-.553 0-1-.447-1-1s.447-1 1-1h1c.553 0 1 .447 1 1s-.448 1-1 1z" fill="#e6e9ed"/></g><g><path d="m29.011 29v2c0 1.1-.89 2-2 2-1.1 0-2-.9-2-2v-3.5-3.5c0-1.11.9-2 2-2 1.11 0 2 .89 2 2v2z" fill="#ed5565"/></g><g><path d="m39.009 27.5v3.5c0 1.1-.89 2-2 2-1.1 0-2-.9-2-2v-2-3-2c0-1.11.9-2 2-2 1.11 0 2 .89 2 2z" fill="#ed5565"/></g><g><path d="m29.011 26h5.998v3h-5.998z" fill="#e6e9ed"/></g></g><g fill="#656d78"><path d="m15 7h2v44h-2z"/><path d="m47 7h2v44h-2z"/></g></g></svg>