<svg id="icons" enable-background="new 0 0 64 64" height="512" viewBox="0 0 64 64" width="512" xmlns="http://www.w3.org/2000/svg"><g><g><path d="m19 42 6 10.5-6 10.5h-6-6l-6-10.5 6-10.5h6z" fill="#656d78"/></g><g><path d="m63 52.5-6 10.5h-6l6-10.5z" fill="#434a54"/></g><g><path d="m57 42 6 10.5h-6l-6-10.5z" fill="#545c66"/></g><g><path d="m51 42 6 10.5-6 10.5h-6-6l-4-7h10c1.93 0 3.5-1.57 3.5-3.5 0-1.931-1.57-3.5-3.5-3.5h-10l4-7h6z" fill="#656d78"/></g><g><path d="m31 52.5-2 3.5-4 7h-6l6-10.5z" fill="#434a54"/></g><g><path d="m45 49c1.93 0 3.5 1.569 3.5 3.5 0 1.93-1.57 3.5-3.5 3.5h-10-6l2-3.5-2-3.5h6z" fill="#ccd1d9"/></g><g><path d="m32 34c8.28 0 15-6.71 15-15 0-8.28-6.72-15-15-15-8.29 0-15 6.72-15 15 0 8.29 6.71 15 15 15zm0-33c9.94 0 18 8.06 18 18 0 9.939-8.06 18-18 18-9.939 0-18-8.061-18-18 0-9.94 8.061-18 18-18z" fill="#656d78"/></g><g><path d="m29 49 2 3.5h-6l-6-10.5h6z" fill="#545c66"/></g><g><path d="m32 4c8.28 0 15 6.72 15 15 0 8.29-6.72 15-15 15-8.29 0-15-6.71-15-15 0-8.28 6.71-15 15-15z" fill="#e6e9ed"/></g><g><path d="m32 20c-.553 0-1-.447-1-1v-8.998c0-.553.447-1 1-1s1 .447 1 1v8.998c0 .553-.447 1-1 1z" fill="#656d78"/></g><g><path d="m38.362 26.363c-.256 0-.512-.098-.707-.293l-6.362-6.363c-.391-.391-.391-1.023 0-1.414s1.023-.391 1.414 0l6.362 6.363c.391.391.391 1.023 0 1.414-.195.196-.451.293-.707.293z" fill="#656d78"/></g></g></svg>